<?xml version="1.0" encoding="UTF-8"?>
<svg width="601px" height="600px" viewBox="0 0 601 600" version="1.1" xmlns="http://www.w3.org/2000/svg" xmlns:xlink="http://www.w3.org/1999/xlink">
    <title>cloud-illustration-teal-cyan</title>
    <defs>
        <linearGradient x1="91.3062671%" y1="13.6346475%" x2="35.2234518%" y2="69.9507486%" id="linearGradient-1">
            <stop stop-color="#000000" offset="0%"></stop>
            <stop stop-color="#FAFAFA" offset="100%"></stop>
        </linearGradient>
        <linearGradient x1="91.3042701%" y1="13.6347912%" x2="35.2216973%" y2="69.9508963%" id="linearGradient-2">
            <stop stop-color="#000000" offset="0%"></stop>
            <stop stop-color="#FAFAFA" offset="100%"></stop>
        </linearGradient>
        <linearGradient x1="48.3320474%" y1="3.82505245%" x2="51.3768601%" y2="88.4295181%" id="linearGradient-3">
            <stop stop-color="#000000" offset="0%"></stop>
            <stop stop-color="#FFFFFF" stop-opacity="0" offset="100%"></stop>
        </linearGradient>
        <linearGradient x1="48.3455791%" y1="3.82463619%" x2="51.3893677%" y2="88.4291019%" id="linearGradient-4">
            <stop stop-color="#000000" offset="0%"></stop>
            <stop stop-color="#FAFAFA" offset="100%"></stop>
        </linearGradient>
        <linearGradient x1="100%" y1="50.6019856%" x2="2.57744553e-06%" y2="50.6019856%" id="linearGradient-5">
            <stop stop-color="#F97316" offset="0%"></stop>
            <stop stop-color="#FB923C" offset="100%"></stop>
        </linearGradient>
        <linearGradient x1="48.34012%" y1="3.83504279%" x2="51.3839226%" y2="88.4395085%" id="linearGradient-6">
            <stop stop-color="#000000" offset="0%"></stop>
            <stop stop-color="#FAFAFA" offset="100%"></stop>
        </linearGradient>
        <linearGradient x1="48.3399397%" y1="3.83504279%" x2="51.3837282%" y2="88.4390922%" id="linearGradient-7">
            <stop stop-color="#000000" offset="0%"></stop>
            <stop stop-color="#FAFAFA" offset="99.9918051%"></stop>
        </linearGradient>
        <linearGradient x1="100%" y1="50.6019856%" x2="2.57744553e-06%" y2="50.6019856%" id="linearGradient-8">
            <stop stop-color="#F97316" offset="0%"></stop>
            <stop stop-color="#FB923C" offset="100%"></stop>
        </linearGradient>
        <linearGradient x1="62.3455122%" y1="7.17842377%" x2="45.1862375%" y2="69.9621988%" id="linearGradient-9">
            <stop stop-color="#000000" offset="0%"></stop>
            <stop stop-color="#FAFAFA" offset="100%"></stop>
        </linearGradient>
        <linearGradient x1="100%" y1="50.6019856%" x2="2.57744553e-06%" y2="50.6019856%" id="linearGradient-10">
            <stop stop-color="#F97316" offset="0%"></stop>
            <stop stop-color="#FB923C" offset="100%"></stop>
        </linearGradient>
        <linearGradient x1="100%" y1="50.6019856%" x2="2.57744553e-06%" y2="50.6019856%" id="linearGradient-11">
            <stop stop-color="#F97316" offset="0%"></stop>
            <stop stop-color="#FB923C" offset="100%"></stop>
        </linearGradient>
        <linearGradient x1="100%" y1="50.6019856%" x2="2.57744553e-06%" y2="50.6019856%" id="linearGradient-12">
            <stop stop-color="#F97316" offset="0%"></stop>
            <stop stop-color="#FB923C" offset="100%"></stop>
        </linearGradient>
        <linearGradient x1="100%" y1="50.6019856%" x2="2.57744553e-06%" y2="50.6019856%" id="linearGradient-13">
            <stop stop-color="#F97316" offset="0%"></stop>
            <stop stop-color="#FB923C" offset="100%"></stop>
        </linearGradient>
        <linearGradient x1="57.171602%" y1="42.8123675%" x2="38.6847273%" y2="64.7657788%" id="linearGradient-14">
            <stop stop-color="#000000" offset="0%"></stop>
            <stop stop-color="#FAFAFA" offset="100%"></stop>
        </linearGradient>
        <linearGradient x1="42.808837%" y1="57.2170728%" x2="61.296041%" y2="35.2635659%" id="linearGradient-15">
            <stop stop-color="#000000" offset="0%"></stop>
            <stop stop-color="#FAFAFA" offset="100%"></stop>
        </linearGradient>
        <linearGradient x1="100%" y1="50.6019856%" x2="2.57744553e-06%" y2="50.6019856%" id="linearGradient-16">
            <stop stop-color="#F97316" offset="0%"></stop>
            <stop stop-color="#FB923C" offset="100%"></stop>
        </linearGradient>
    </defs>
    <g id="Page-1" stroke="none" stroke-width="1" fill="none" fill-rule="evenodd">
        <g id="cloud-illustration-teal-cyan" fill-rule="nonzero">
            <path d="M546.232,252.902 C546.232,256.16 546.16,259.418 545.943,262.459 C577.053,286.135 601,336.889 601,381.561 C601,430.216 572.567,453.167 537.478,432.895 C537.406,432.822 537.333,432.822 537.261,432.75 L316.815,305.539 C316.742,305.466 316.67,305.466 316.525,305.394 C277.095,282.587 245.117,219.814 245.117,165.15 C245.117,113.961 273.188,87.9689 309.146,103.68 C313.559,68.565 337.072,53.4329 365.433,69.8683 C379.035,77.7602 391.551,91.589 401.318,108.242 C415.498,87.1725 439.663,81.8147 467.01,97.5984 C510.781,122.795 546.232,192.373 546.232,252.902 Z" id="Path" fill="url(#linearGradient-1)" opacity="0.07"></path>
            <path d="M510.058,287.655 C510.058,290.913 509.986,294.172 509.769,297.212 C540.879,320.888 564.826,371.642 564.826,416.315 C564.826,464.969 536.393,487.921 501.304,467.648 C501.232,467.576 501.159,467.576 501.087,467.503 L280.641,340.292 C280.569,340.22 280.496,340.22 280.351,340.147 C240.921,317.34 208.943,254.567 208.943,199.903 C208.943,148.715 237.015,122.722 272.972,138.434 C277.385,103.318 300.898,88.1863 329.259,104.622 C342.861,112.514 355.377,126.342 365.144,142.995 C379.324,121.926 403.489,116.568 430.837,132.352 C474.608,157.548 510.058,227.127 510.058,287.655 Z" id="Path" fill="url(#linearGradient-2)" opacity="0.4"></path>
            <polygon id="Path" fill="url(#linearGradient-3)" opacity="0.07" points="264.145 187.522 481.118 312.851 481.118 427.754 264.072 302.425"></polygon>
            <polygon id="Path" fill="url(#linearGradient-4)" opacity="0.3" points="235.133 202.003 452.106 327.332 452.106 442.235 235.133 316.906"></polygon>
            <path d="M254.594,270.424 C254.594,279.691 260.092,290.335 266.821,294.244 C273.549,298.154 279.048,293.81 279.048,284.542 C279.048,275.275 273.549,264.632 266.821,260.722 C260.092,256.812 254.594,261.156 254.594,270.424 Z" id="Path" fill="url(#linearGradient-5)"></path>
            <path d="M285.199,288.307 C285.199,292.579 287.731,297.575 290.915,299.385 C294.026,301.195 296.558,299.168 296.558,294.896 C296.558,290.624 294.026,285.628 290.842,283.818 C287.731,282.008 285.199,284.035 285.199,288.307 Z" id="Path" fill="#000000" opacity="0.15"></path>
            <path d="M302.635,298.371 C302.635,302.642 305.167,307.638 308.35,309.448 C311.461,311.258 313.994,309.231 313.994,304.959 C313.994,300.688 311.461,295.692 308.278,293.882 C305.167,292.072 302.635,294.099 302.635,298.371 Z" id="Path" fill="#000000" opacity="0.15"></path>
            <polygon id="Path" fill="#000000" opacity="0.15" points="397.338 317.919 397.338 383.299 388.801 378.376 388.801 312.996"></polygon>
            <polygon id="Path" fill="#000000" opacity="0.15" points="416.004 328.78 416.004 394.159 407.467 389.236 407.467 323.856"></polygon>
            <polygon id="Path" fill="#000000" opacity="0.15" points="434.742 339.64 434.742 405.02 426.205 400.096 426.205 334.717"></polygon>
            <polygon id="Path" fill="url(#linearGradient-6)" opacity="0.07" points="264.072 344.563 481.046 469.892 481.046 584.795 264.072 459.466"></polygon>
            <polygon id="Path" fill="url(#linearGradient-7)" opacity="0.3" points="235.133 359.768 452.106 485.097 452.106 600 235.133 474.671"></polygon>
            <path d="M254.594,428.188 C254.594,437.456 260.092,448.099 266.821,452.009 C273.549,455.919 279.048,451.574 279.048,442.307 C279.048,433.039 273.549,422.396 266.821,418.487 C260.092,414.577 254.594,418.921 254.594,428.188 Z" id="Path" fill="url(#linearGradient-8)"></path>
            <path d="M285.199,446.145 C285.199,450.416 287.731,455.412 290.915,457.222 C294.026,459.032 296.558,457.005 296.558,452.733 C296.558,448.461 294.026,443.466 290.842,441.656 C287.731,439.846 285.199,441.8 285.199,446.145 Z" id="Path" fill="#000000" opacity="0.15"></path>
            <path d="M302.562,456.208 C302.562,460.48 305.095,465.476 308.278,467.286 C311.389,469.096 313.921,467.069 313.921,462.797 C313.921,458.525 311.389,453.53 308.206,451.719 C305.095,449.837 302.562,451.864 302.562,456.208 Z" id="Path" fill="#000000" opacity="0.15"></path>
            <polygon id="Path" fill="#000000" opacity="0.15" points="397.338 477.929 397.338 543.309 388.801 538.385 388.801 473.006"></polygon>
            <polygon id="Path" fill="#FFFFFF" opacity="0.15" points="416.004 488.79 416.004 554.169 407.467 549.246 407.467 483.866"></polygon>
            <polygon id="Path" fill="url(#linearGradient-9)" opacity="0.3" points="42.4688 31.7847 177.688 109.466967 177.688 358.7847 116.570132 342.801239 42.4688 281.030143"></polygon>
            <polygon id="Path" fill="#000000" opacity="0.15" points="434.742 499.65 434.742 565.029 426.205 560.106 426.205 494.727"></polygon>
            <path d="M125.959,122.577 C125.959,135.103 118.724,141.04 109.825,135.827 C100.926,130.614 93.6914,116.278 93.6914,103.753 C93.6914,91.2272 100.926,85.2901 109.825,90.5031 C118.724,95.7161 125.959,110.052 125.959,122.577 Z" id="Path" fill="url(#linearGradient-10)"></path>
            <path d="M109.825,145.891 C95.4274,137.493 83.5622,145.384 81.4641,163.485 C81.1024,166.598 83.4899,170.798 86.3838,172.463 L133.338,199.904 C136.232,201.569 138.62,200.266 138.258,196.645 C136.087,176.011 124.15,154.29 109.825,145.891 Z" id="Path" fill="url(#linearGradient-11)"></path>
            <polygon id="Path" fill="#000000" opacity="0.15" points="69.5996 194.401 150.196 240.956 150.196 250.802 69.5996 204.248"></polygon>
            <polygon id="Path" fill="#000000" opacity="0.15" points="77.7754 218.656 141.659 255.509 141.659 265.355 77.7754 228.502"></polygon>
            <polygon id="Path" fill="url(#linearGradient-12)" points="94.0532 260.07 0 205.696 0 233.716 94.0532 288.09"></polygon>
            <path d="M161.048,349.632 L127.479,330.228 L127.479,318.861 L161.048,338.265 C163.798,339.858 167.777,343.043 171.177,347.967 C174.867,353.252 177.471,359.913 177.471,367.153 C177.471,375.118 175.446,379.679 171.539,380.982 C167.921,382.213 163.653,380.113 160.976,378.593 L147.157,370.629 L147.085,370.556 C145.927,369.832 144.046,369.181 142.527,369.615 C141.297,369.977 139.922,371.208 139.922,375.624 C139.922,380.041 141.297,382.792 142.455,384.385 C143.902,386.412 145.783,387.86 146.94,388.44 L147.085,388.512 L189.264,412.912 L189.264,424.279 L147.302,400.024 C144.408,398.504 140.284,395.318 136.667,390.25 C132.76,384.747 130.011,377.724 130.083,369.905 C130.083,362.158 132.76,358.175 136.667,357.089 C140.284,356.076 144.408,357.524 147.302,359.334 L160.976,367.226 C162.929,368.384 164.449,368.891 165.389,368.529 C166.113,368.312 167.56,367.226 167.56,361.434 C167.56,357.741 166.33,355.279 165.245,353.614 C163.942,351.732 162.134,350.284 161.048,349.632 Z" id="Path" fill="#000000" opacity="0.2"></path>
            <path d="M206.339,428.044 C206.339,437.384 200.84,441.8 194.112,437.963 C187.383,434.053 181.885,423.338 181.885,413.925 C181.885,404.585 187.383,400.169 194.112,404.006 C200.84,407.916 206.339,418.704 206.339,428.044 Z" id="Path" fill="url(#linearGradient-13)"></path>
            <path d="M206.845,0 L226.958,39.5318 C229.707,44.962 229.273,50.3922 225.945,51.6954 C222.617,52.9987 217.698,49.5957 214.948,44.1656 L214.731,43.6587 L214.731,87.5347 C214.731,92.5305 211.259,94.5577 206.918,92.096 C202.577,89.5619 199.104,83.5525 199.104,78.5568 L199.104,34.6808 L198.887,34.898 C196.138,37.1425 191.146,34.8256 187.89,29.685 C184.562,24.5445 184.128,18.6075 186.877,16.363 L206.845,0 Z" id="Path" fill="url(#linearGradient-14)" opacity="0.2"></path>
            <path d="M206.845,583.709 L186.733,544.177 C183.983,538.747 184.417,533.317 187.745,532.014 C191.073,530.711 195.993,534.113 198.742,539.544 L198.959,540.05 L198.959,496.174 C198.959,491.179 202.432,489.151 206.773,491.613 C211.114,494.147 214.587,500.157 214.587,505.152 L214.587,549.028 L214.804,548.811 C217.553,546.567 222.545,548.884 225.801,554.024 C229.129,559.165 229.563,565.102 226.814,567.346 L206.845,583.709 Z" id="Path" fill="url(#linearGradient-15)" opacity="0.2"></path>
            <path d="M134.714,327.404 C134.714,336.744 129.215,341.161 122.487,337.323 C115.758,333.414 110.26,322.698 110.26,313.286 C110.26,303.946 115.758,299.529 122.487,303.367 C129.215,307.276 134.714,318.064 134.714,327.404 Z" id="Path" fill="url(#linearGradient-16)"></path>
        </g>
    </g>
</svg>