<?xml version="1.0" encoding="UTF-8"?>
<svg width="196px" height="196px" viewBox="0 0 196 196" version="1.1" xmlns="http://www.w3.org/2000/svg" xmlns:xlink="http://www.w3.org/1999/xlink">
    <title>socket-single-orange</title>
    <g id="Symbols" stroke="none" stroke-width="1" fill="none" fill-rule="evenodd">
        <g id="Group" transform="translate(-15.000000, -14.000000)" fill="#EA580C">
            <g id="socket-orange" transform="translate(15.000000, 14.000000)">
                <path d="M129.073197,11.6795915 L117.083841,23.360658 L107.113854,13.892194 C100.843339,7.93734297 95.8959592,4.42520515 93.7807111,4.42520515 C89.786226,4.42520515 42.9955818,50.8352817 38.9583196,58.8021261 C31.5888779,73.3418751 28.8791773,88.2459661 30.9442731,102.88897 C32.3382127,112.768978 39.0689497,129.522805 43.7021395,134.641292 C45.9825952,137.162184 44.8290918,138.600375 22.9671032,160.494815 C-1.347924,184.845244 -2.97934963,187.488567 2.76604172,193.233958 C8.51143308,198.97935 11.1547556,197.347924 35.5051845,173.032897 C57.3996245,151.170908 58.8378162,150.017405 61.3587081,152.29786 C66.4963712,156.948751 83.2472478,163.664737 93.2113347,165.069003 C108.543196,167.232928 125.525658,163.765042 139.16119,155.689043 C148.179758,150.346345 191.574795,105.943837 191.574795,102.058506 C191.574795,100.140918 187.776494,94.8557475 182.107806,88.8861457 L172.639342,78.9161585 L184.320409,66.9268027 C190.744331,60.333247 196,53.9506261 196,52.7440202 C196,51.5374143 194.623761,48.8011624 192.942183,46.6637883 C187.769118,40.0864584 183.767258,41.4331958 170.702577,54.1468102 L159.018561,65.5166373 L144.750224,51.2497759 L130.483363,36.9814395 L141.85319,25.2974228 C154.566804,12.2327421 155.913542,8.23088158 149.336212,3.05781676 C147.198838,1.3762388 144.462586,0 143.25598,0 C142.049374,0 135.666753,5.25566865 129.073197,11.6795915 M75.6388451,46.095887 C55.251925,66.7925715 53.7060533,68.9623971 50.5346563,81.342646 C41.4334843,116.868193 75.702273,153.410062 111.394503,146.242705 C124.907604,143.528579 131.290225,139.246455 150.454314,120.03664 L168.677308,101.767918 L131.828625,64.8971086 C111.562661,44.6178685 94.6333007,28.0262993 94.208481,28.0262993 C93.7851363,28.0262993 85.428874,36.1583513 75.6388451,46.095887 M90.4662325,55.2486863 C88.4748902,57.2400286 86.8449396,60.0367583 86.8449396,61.4646245 C86.8449396,64.8513815 131.148619,109.15506 134.535376,109.15506 C138.19502,109.15506 144.372607,102.546754 144.372607,98.6304475 C144.372607,94.0400347 101.959965,51.6273934 97.3695525,51.6273934 C95.5640688,51.6273934 92.4575748,53.257344 90.4662325,55.2486863" id="Shape"></path>
            </g>
        </g>
    </g>
</svg>