<svg height="200" viewBox="0 0 200 200" width="200" xmlns="http://www.w3.org/2000/svg" xmlns:xlink="http://www.w3.org/1999/xlink"><defs><circle id="a" cx="100" cy="100" r="100"/><mask id="b" fill="#fff"><use fill="#fff" fill-rule="evenodd" xlink:href="#a"/></mask></defs><g fill="none" fill-rule="evenodd"><use fill="#fb923c" fill-rule="nonzero" xlink:href="#a"/><path d="m102.222222 0h97.777778v200h-97.777778z" fill="#f97316" fill-rule="nonzero" mask="url(#b)"/><path d="m84.392 36.244c6.0666667-2.7872444 12.0102222-4.3408 17.830222-4.6604889v26.3227111c-2.9759998.4493334-6.0319998 1.2364445-9.1688887 2.3608889-5.7742222 2.0697778-11.4395555 5.8831111-16.9955555 11.4391111-9.3693334 9.3697778-11.2217778 16.8871111-5.5564445 22.552 2.5057778 2.5057778 5.1751111 3.3231111 8.0075556 2.4515556 2.7235555-.9804445 5.992-2.8328889 9.8053333-5.5564445l15.5248888-11.276c4.357778-3.2684444 8.770222-5.9373333 13.236889-8.0075555 4.358222-2.1791111 8.716-3.4862222 13.073778-3.9222222 4.466666-.5444445 8.824889-.1088889 13.073778 1.3075555 4.248888 1.4164445 8.388888 4.14 12.42 8.1711111 8.824444 8.8244445 12.365333 19.2288889 10.622222 31.2133338-1.634222 11.875111-8.716 24.076888-21.244889 36.605777-9.369333 9.369778-18.956445 16.124445-28.761778 20.264445-4.841778 2.012889-9.520889 3.346666-14.036889 4.001333v-27.048444c2.644-.496889 5.252889-1.203556 7.826667-2.119556 6.428-2.505778 12.474667-6.591555 18.14-12.256889 4.793333-4.793333 7.844-9.260444 9.151555-13.400444 1.198223-4.248889.272-7.898667-2.778222-10.948889-2.396889-2.396889-4.957333-3.104889-7.680889-2.124445-2.832444.871556-6.155555 2.668889-9.968444 5.392889l-15.688445 11.439111c-4.3577773 3.268445-8.7159996 5.992-13.0737773 8.171112-4.4666667 2.070222-8.8791111 3.323111-13.2368889 3.758666-4.3577778.436-8.6613334-.054222-12.9102222-1.470666-4.2488889-1.416445-8.3888889-4.14-12.42-8.171112-8.8246223-8.824888-12.3654223-19.12-10.6222667-30.8862218 1.7431555-11.7662222 8.7156-23.7506666 20.9178222-35.9524444 8.28-8.28 16.4511111-14.1631111 24.5128889-17.6497778z" fill="#fff" mask="url(#b)"/></g></svg>