<svg height="72" viewBox="0 0 447 72" width="447" xmlns="http://www.w3.org/2000/svg" xmlns:xlink="http://www.w3.org/1999/xlink"><defs><circle id="a" cx="35.99568" cy="35.99568" r="35.99568"/><mask id="b" fill="#fff"><use fill="#fff" fill-rule="evenodd" xlink:href="#a"/></mask></defs><g fill="none" fill-rule="evenodd"><use fill="#fb923c" fill-rule="nonzero" xlink:href="#a"/><path d="m36.795584 0h35.195776v71.991359h-35.195776z" fill="#f97316" fill-rule="nonzero" mask="url(#b)"/><path d="m30.3774739 13.0462741c2.1837379-1.0032876 4.3231611-1.5625005 6.4181096-1.6775747v9.4750388c-1.0712314.1617406-2.1712594.4450666-3.3004038.849818-2.0784706.7450306-4.1177458 2.1176658-6.1176658 4.1175858-3.3725552 3.3727151-4.0393551 6.0786304-2.0000799 8.1177456.9019718.9019717 1.8628164 1.1961764 2.882374.8824541.9803624-.3529177 2.1568612-1.0197176 3.5294964-2.00008l5.5882893-4.0588728c1.5686117-1.1764988 3.156901-2.1371835 4.7647081-2.882374 1.5687717-.7843859 3.1373834-1.2548894 4.7059951-1.4118306 1.607807-.1959764 3.1765787-.0391952 4.7059952.4706636 1.5294164.5098588 3.0196375 1.4902211 4.4706634 2.9412469 3.1764187 3.1764188 4.4509857 6.9215692 3.823541 11.2354515-.5882494 4.2745269-3.1373834 8.6666397-7.6472421 13.1764984-3.3725552 3.3727152-6.823501 5.8041034-10.3529973 7.2943245-1.7428309.724553-3.4271087 1.2046554-5.0526736 1.4403071v-9.7362714c.9517258-.1788585 1.8908131-.433228 2.8172619-.7629484 2.3138023-.9019717 4.490341-2.3726752 6.5296162-4.4119504 1.7253929-1.7253929 2.8235011-3.3333599 3.2941646-4.8235811.4313083-1.5294164.0979083-2.8431787-1.0000399-3.9411269-.8627765-.8627765-1.7844258-1.1176259-2.7647882-.7647082-1.0195576.3137223-2.215734.9606847-3.5882093 1.941207l-5.6471622 4.1175857c-1.5686117 1.1764988-3.1373834 2.1568612-4.7059951 2.941247-1.607807.7451906-3.1960964 1.1961764-4.7647081 1.3529576-1.5686118.1569412-3.1177058-.0195176-4.6471222-.5293764-1.5294165-.5098588-3.0196376-1.4902212-4.4706634-2.941247-3.1764828-3.1765787-4.4510178-6.8823739-3.8235571-11.1177056.6274607-4.2353316 3.1372394-8.5492138 7.5295122-12.9413267 2.9804423-2.9804422 5.9216893-5.0981081 8.823581-6.3531574z" fill="#fff" mask="url(#b)"/><path d="m108.756446 61c3.878302 0 7.323589-.6028946 10.335863-1.8086839 3.012273-1.2057892 5.389145-2.9023066 7.130616-5.0895522 1.74147-2.1872456 2.621619-4.7577265 2.640445-7.7114428-.018826-3.1406603-1.087242-5.6644052-3.205247-7.5712347-2.118004-1.9068295-5.342078-3.2715212-9.672221-4.0940751l-8.359059-1.5703302c-1.82619-.3738881-3.092286-.8692899-3.798288-1.4862053s-1.049589-1.3459973-1.030762-2.1872456c-.018827-1.0842756.531854-1.9442183 1.652043-2.5798281 1.12019-.6356098 2.480419-.9534148 4.080689-.9534148 1.223736 0 2.301566.2009649 3.233488.6028947.931922.4019297 1.689697.9534147 2.273325 1.654455.583628.7010402.941335 1.5002261 1.073122 2.3975576l12.679788-.3364993c-.357707-4.2623247-2.230965-7.6132972-5.619772-10.0529172-3.388808-2.4396201-8.020178-3.6594302-13.894111-3.6594302-3.915955 0-7.314176.5421378-10.1946627 1.6264134-2.8804864 1.0842756-5.102038 2.6499322-6.6646547 4.6969697-1.5626168 2.0470376-2.3345119 4.5100257-2.3156852 7.3889643-.0188267 3.2902156 1.035469 5.996231 3.162887 8.1180461 2.1274181 2.1218152 5.3656119 3.5753053 9.7145816 4.3604704l7.568337 1.4301221c1.807364.3364993 3.134647.7991859 3.981848 1.3880597.847202.5888738 1.280217 1.3693653 1.299043 2.3414745-.018826 1.0842756-.583628 1.9535655-1.694403 2.6078697-1.110776.6543042-2.551019.9814564-4.32073.9814564-1.957978 0-3.567661-.411277-4.829051-1.2338309-1.261389-.8225539-2.042697-2.0189959-2.343925-3.5893261l-13.63995.3364993c.5083211 4.2623248 2.5463123 7.6600332 6.1139735 10.1931253 3.5676613 2.5330921 8.4484855 3.7996382 14.6424725 3.7996382zm46.105469 0c4.556064 0 8.467312-.9300467 11.733746-2.7901402s5.7798-4.458616 7.540097-7.7955676 2.640446-7.2113674 2.640446-11.6232474c0-4.4305744-.880149-8.3143374-2.640446-11.651289s-4.273663-5.9354742-7.540097-7.7955676c-3.266434-1.8600935-7.177682-2.7901403-11.733746-2.7901403-4.556063 0-8.467312.9300468-11.733746 2.7901403-3.266434 1.8600934-5.779799 4.458616-7.540096 7.7955676-1.760298 3.3369516-2.640446 7.2207146-2.640446 11.651289 0 4.41188.880148 8.2862958 2.640446 11.6232474 1.760297 3.3369516 4.273662 5.9354741 7.540096 7.7955676s7.177683 2.7901402 11.733746 2.7901402zm.084721-10.3473541c-1.713231 0-3.158181-.504749-4.33485-1.514247s-2.070938-2.4115785-2.682806-4.2062415c-.611868-1.7946631-.917802-3.8697422-.917802-6.2252375 0-2.392884.305934-4.4866576.917802-6.2813206.611868-1.7946631 1.506137-3.1967436 2.682806-4.2062415 1.176669-1.009498 2.621619-1.514247 4.33485-1.514247 1.65675 0 3.05934.504749 4.207769 1.514247 1.148429 1.0094979 2.028578 2.4115784 2.640446 4.2062415.611868 1.794663.917802 3.8884366.917802 6.2813206 0 2.3554953-.305934 4.4305744-.917802 6.2252375-.611868 1.794663-1.492017 3.1967435-2.640446 4.2062415s-2.551019 1.514247-4.207769 1.514247zm48.133141 10.3473541c4.066569 0 7.582457-.7337555 10.547664-2.2012664 2.965206-1.4675109 5.271478-3.5285693 6.918815-6.183175 1.647337-2.6546058 2.536899-5.7578773 2.668686-9.3098146h-12.905709c-.16944 1.514247-.574214 2.7994874-1.214322 3.8557214-.640109 1.056234-1.454364 1.8554199-2.442766 2.3975577s-2.122711.8132067-3.402927.8132067c-1.600271 0-3.00286-.4439922-4.20777-1.3319765-1.204909-.8879843-2.141538-2.20594-2.809886-3.953867-.668348-1.7479271-1.002522-3.8931103-1.002522-6.4355496s.334174-4.6782753 1.002522-6.4075079 1.604977-3.0378411 2.809886-3.9258254c1.20491-.8879843 2.607499-1.3319765 4.20777-1.3319765 1.976804 0 3.581781.6262626 4.81493 1.8787879 1.23315 1.2525252 1.981511 2.9817579 2.245085 5.1876979h12.905709c-.094134-3.5332429-.983696-6.6131464-2.668686-9.2397106-1.68499-2.6265641-4.019502-4.6595809-7.003536-6.0990502-2.984033-1.4394693-6.481094-2.159204-10.491183-2.159204-4.537236 0-8.439072.9347204-11.705506 2.8041611-3.266434 1.8694406-5.779799 4.4726368-7.540096 7.8095884-1.760298 3.3369516-2.640446 7.2113674-2.640446 11.6232474 0 4.3931856.875442 8.2582542 2.626326 11.5952058 1.750883 3.3369516 4.259542 5.9401477 7.525976 7.8095884s7.187096 2.804161 11.761986 2.804161zm39.994337-56.1673584h-13.809391v55.3541517h13.809391l-.000121-12.9297781 2.794702-3.3596092 10.337048 16.2893873h15.955635l-16.02479-24.2987121 15.403509-18.7732011h-15.644995l-12.199707 15.4228856-.621402.0009614zm50.866746 56.1673584c3.784169 0 7.116496-.574853 9.996983-1.724559 2.880486-1.149706 5.210291-2.7667722 6.989415-4.8511986 1.779124-2.0844263 2.93226-4.5380672 3.459408-7.3609226l-12.679788-.364541c-.357708.9534148-.894269 1.7572743-1.609684 2.4115785s-1.57203 1.149706-2.569846 1.4862053c-.997815.3364994-2.108591.504749-3.332327.504749-1.769711 0-3.294674-.3645409-4.57489-1.0936228-1.280216-.7290818-2.268618-1.7526006-2.965207-3.0705563-.696588-1.3179557-1.044882-2.8555706-1.044882-4.6128448l-.001028-.3640923 28.918852-.0004487v-3.4210764c0-3.5332429-.517735-6.6692296-1.553203-9.4079602-1.035469-2.7387306-2.485126-5.0428162-4.34897-6.9122569s-4.075982-3.2808684-6.636415-4.2342831c-2.560432-.9534148-5.384438-1.4301222-8.472019-1.4301222-4.367796 0-8.161378.9300468-11.380745 2.7901403-3.219367 1.8600934-5.713906 4.458616-7.483616 7.7955676-1.769711 3.3369516-2.654566 7.2300618-2.654566 11.6793306 0 4.5801296.880149 8.5293231 2.640446 11.8475803s4.283076 5.8700437 7.568336 7.6553595c3.285261 1.7853159 7.19651 2.6779738 11.733746 2.6779738zm-8.314345-27.1457391c.086289-1.3302239.457332-2.5308527 1.113129-3.6018864.715415-1.1684004 1.684991-2.0937736 2.908727-2.7761194 1.223736-.6823459 2.607499-1.0235188 4.151289-1.0235188 1.524963 0 2.87578.3224785 4.052449.9674356 1.176669.644957 2.103885 1.5376149 2.781646 2.6779737.677762 1.1403588 1.026056 2.4396201 1.044883 3.8978479h-16.059296zm51.607012-29.0216193v12.2822385h7.822629v10.0949797l-7.822629.0002564.000131 19.4325794c0 .8412483.136494 1.5189206.409481 2.0330167.272987.5140962.673055.8786372 1.200203 1.0936228.527148.2149857 1.157842.3224786 1.892084.3224786.527148 0 1.087242-.0514097 1.680284-.1542289.593041-.1028192 1.040175-.1916177 1.341403-.2663953l2.089764 9.8986884c-.658935.1869441-1.58615.4206241-2.781646.7010402s-2.621619.458013-4.278369.5327906c-3.238194.1495553-6.010427-.2290065-8.316699-1.1356852-2.306271-.9066787-4.066569-2.32278-5.280891-4.2483039l-.186533-.308147c-1.087986-1.8735835-1.614143-4.1917935-1.578471-6.95463l-.000035-20.9468264-6.732698-.0002564v-10.0949797h6.732698l-.000097-12.2822385zm101.153118-.00001279-.000097 12.28225129h7.82273v10.0949797l-7.82273.0002564.000233 19.4325794c0 .8412483.136494 1.5189206.409481 2.0330167.272987.5140962.673055.8786372 1.200203 1.0936228.527147.2149857 1.157842.3224786 1.892084.3224786.527148 0 1.087242-.0514097 1.680283-.1542289.593042-.1028192 1.040176-.1916177 1.341403-.2663953l2.089765 9.8986884c-.658935.1869441-1.58615.4206241-2.781646.7010402s-2.621619.458013-4.27837.5327906c-3.238193.1495553-6.010426-.2290065-8.316698-1.1356852s-4.066569-2.32278-5.280892-4.2483039l-.186533-.308147c-1.087985-1.8735835-1.614142-4.1917935-1.578471-6.95463l-.000135-20.9468264-6.732597-.0002564v-10.0949797h6.732597v-12.28225129zm-71.595869.00001279-.000898 27.7060855.62218-.0009614 12.199707-15.4228856h15.644994l-15.403254 18.7732011 16.024536 24.2987121h-15.955636l-10.336793-16.2893873-2.795734 3.3606347.000898 12.9287526h-13.80939v-55.3541517zm46.207137 12.2822385v43.0719132h-13.809391v-43.0719132zm-6.890576-16.1148801c1.957978 0 3.628848.64028343 5.012612 1.92085029 1.383763 1.28056687 2.075644 2.81818182 2.075644 4.61284487 0 1.81335746-.691881 3.36031964-2.075644 4.64088644-1.383764 1.2805669-3.045221 1.9208503-4.984372 1.9208503-1.957977 0-3.633554-.6402834-5.026731-1.9208503-1.393176-1.2805668-2.089764-2.82752898-2.089764-4.64088644 0-1.79466305.696588-3.332278 2.089764-4.61284487 1.393177-1.28056686 3.05934-1.92085029 4.998491-1.92085029z" fill="#1c1917" fill-rule="nonzero"/></g></svg>